<?xml version="1.0" encoding="UTF-8" standalone="no"?>
<svg
   xmlns:dc="http://purl.org/dc/elements/1.1/"
   xmlns:cc="http://creativecommons.org/ns#"
   xmlns:rdf="http://www.w3.org/1999/02/22-rdf-syntax-ns#"
   xmlns:svg="http://www.w3.org/2000/svg"
   xmlns="http://www.w3.org/2000/svg"
   xmlns:sodipodi="http://sodipodi.sourceforge.net/DTD/sodipodi-0.dtd"
   xmlns:inkscape="http://www.inkscape.org/namespaces/inkscape"
   width="24"
   height="24"
   version="1.2"
   viewBox="0 0 24 24"
   id="svg24"
   sodipodi:docname="connect.svg"
   inkscape:version="0.92.4 (5da689c313, 2019-01-14)">
  <metadata
     id="metadata30">
    <rdf:RDF>
      <cc:Work
         rdf:about="">
        <dc:format>image/svg+xml</dc:format>
        <dc:type
           rdf:resource="http://purl.org/dc/dcmitype/StillImage" />
        <dc:title>Connect</dc:title>
      </cc:Work>
    </rdf:RDF>
  </metadata>
  <defs
     id="defs28" />
  <sodipodi:namedview
     pagecolor="#ffffff"
     bordercolor="#666666"
     borderopacity="1"
     objecttolerance="10"
     gridtolerance="10"
     guidetolerance="10"
     inkscape:pageopacity="0"
     inkscape:pageshadow="2"
     inkscape:window-width="1681"
     inkscape:window-height="1008"
     id="namedview26"
     showgrid="false"
     showguides="true"
     inkscape:guide-bbox="true"
     inkscape:zoom="16.000001"
     inkscape:cx="-28.796732"
     inkscape:cy="0.40123481"
     inkscape:window-x="1200"
     inkscape:window-y="0"
     inkscape:window-maximized="0"
     inkscape:current-layer="svg24"
     inkscape:object-paths="true"
     inkscape:snap-intersection-paths="true"
     inkscape:snap-bbox="true"
     inkscape:bbox-paths="true"
     inkscape:bbox-nodes="true"
     inkscape:snap-bbox-edge-midpoints="true"
     inkscape:snap-bbox-midpoints="true">
    <sodipodi:guide
       position="2,2"
       orientation="1,0"
       id="guide851"
       inkscape:locked="false"
       inkscape:label=""
       inkscape:color="rgb(0,0,255)" />
    <sodipodi:guide
       position="2,2"
       orientation="0,1"
       id="guide853"
       inkscape:locked="false"
       inkscape:label=""
       inkscape:color="rgb(0,0,255)" />
    <sodipodi:guide
       position="22,22"
       orientation="1,0"
       id="guide855"
       inkscape:locked="false"
       inkscape:label=""
       inkscape:color="rgb(0,0,255)" />
    <sodipodi:guide
       position="22,22"
       orientation="0,1"
       id="guide857"
       inkscape:locked="false"
       inkscape:label=""
       inkscape:color="rgb(0,0,255)" />
  </sodipodi:namedview>
  <title
     id="title2">Connect</title>
  <path
     d="m 3.4787091,20.521289 c 1.9706692,1.970668 5.0989746,1.972094 7.0696869,0.0014 l 2.121321,-2.121321 c 0.390369,-0.39053 0.390369,-1.023684 0,-1.414213 L 11.96261,16.280048 13.376823,14.865834 C 14.388181,13.854477 12.961755,12.452476 11.96261,13.451621 L 10.548396,14.865815 9.1341823,13.451602 10.548396,12.037388 C 11.547541,11.038243 10.14554,9.6118175 9.1341823,10.623175 L 7.7199688,12.037388 7.012862,11.330281 c -0.3905287,-0.390369 -1.0236836,-0.390368 -1.4142137,0 L 3.477328,13.451602 c -1.9707132,1.970712 -1.9692876,5.099017 0.00138,7.069687 z m 1.4128325,-1.412833 c -1.2653741,-1.265375 -1.2653326,-2.977309 0,-4.242641 l 1.4142135,-1.414213 4.2426409,4.24264 -1.4142137,1.414214 c -1.2653317,1.265332 -2.9772655,1.265374 -4.2426407,0 z M 15.985661,13.671192 c 0.39053,0.390368 1.023683,0.390369 1.414213,0 l 2.121321,-2.121321 c 1.970627,-1.9706243 1.97067,-5.1003995 0,-7.0710674 -1.970668,-1.9706706 -5.100444,-1.9706275 -7.071068,0 l -2.121321,2.1213203 c -0.3903694,0.3905301 -0.3903684,1.0236841 0,1.4142136 z m 0.707106,-2.121321 -4.24264,-4.2426403 1.414213,-1.4142136 c 1.265418,-1.2654178 2.977267,-1.2653739 4.242641,0 1.265374,1.265374 1.265418,2.9772232 0,4.2426409 z"
     id="path833"
     inkscape:connector-curvature="0"
     sodipodi:nodetypes="sscccssccsscccssssccssccscscccccsssc"
     class="contour" />
</svg>
