<?xml version="1.0" encoding="UTF-8" standalone="no"?>
<!-- Created with Inkscape (http://www.inkscape.org/) -->

<svg
   width="512"
   height="512"
   viewBox="0 0 512 512"
   version="1.1"
   id="svg5"
   inkscape:version="1.1 (c68e22c387, 2021-05-23)"
   sodipodi:docname="icon.svg"
   xmlns:inkscape="http://www.inkscape.org/namespaces/inkscape"
   xmlns:sodipodi="http://sodipodi.sourceforge.net/DTD/sodipodi-0.dtd"
   xmlns:xlink="http://www.w3.org/1999/xlink"
   xmlns="http://www.w3.org/2000/svg"
   xmlns:svg="http://www.w3.org/2000/svg">
  <sodipodi:namedview
     id="namedview7"
     pagecolor="#ffffff"
     bordercolor="#666666"
     borderopacity="1.0"
     inkscape:pageshadow="2"
     inkscape:pageopacity="0.0"
     inkscape:pagecheckerboard="0"
     inkscape:document-units="px"
     showgrid="false"
     units="px"
     inkscape:zoom="0.26582969"
     inkscape:cx="-361.13347"
     inkscape:cy="426.9651"
     inkscape:window-width="3840"
     inkscape:window-height="1017"
     inkscape:window-x="-8"
     inkscape:window-y="-8"
     inkscape:window-maximized="1"
     inkscape:current-layer="layer1" />
  <defs
     id="defs2">
    <linearGradient
       inkscape:collect="always"
       id="linearGradient17527">
      <stop
         style="stop-color:#0c8457;stop-opacity:1"
         offset="0"
         id="stop17523" />
      <stop
         style="stop-color:#10bb79;stop-opacity:1"
         offset="1"
         id="stop17525" />
    </linearGradient>
    <linearGradient
       inkscape:collect="always"
       xlink:href="#linearGradient17527"
       id="linearGradient17529"
       x1="393.82462"
       y1="475.44571"
       x2="831.90527"
       y2="32.350616"
       gradientUnits="userSpaceOnUse"
       gradientTransform="matrix(0,-1.1687346,1.1555082,0,-37.381404,460.27647)" />
  </defs>
  <g
     inkscape:label="Layer 1"
     inkscape:groupmode="layer"
     id="layer1">
    <rect
       style="fill:url(#linearGradient17529);fill-opacity:1;stroke:none;stroke-width:11.6211;stroke-miterlimit:4;stroke-dasharray:none"
       id="rect17411"
       width="512"
       height="512"
       x="0"
       y="-512"
       ry="0"
       transform="rotate(90)" />
    <path
       id="path145"
       style="color:#000000;fill:#ffffff;stroke-width:1.16873;-inkscape-stroke:none"
       d="m 168.20312,250.15625 c 0.61308,-28.04012 5.50416,-51.77465 12.7461,-71.63672 18.01512,5.56875 37.70116,9.10397 58.40625,10.29102 v -11.7168 c -19.17011,-1.16198 -37.37098,-4.43622 -53.99024,-9.48633 6.5011,-14.82233 14.2655,-27.22804 22.33399,-37.34961 10.34974,-12.98336 21.17601,-22.28042 30.24219,-28.25 4.57646,-3.013326 8.88328,-5.094101 12.21484,-6.425779 v 30.998049 c 3.64403,-2.37968 7.95156,-3.78881 12.53711,-3.80274 V 95.582031 c 3.33156,1.33168 7.63838,3.41244 12.21484,6.425779 7.19223,4.73569 15.48835,11.66264 23.7793,20.76563 h 15.43359 c -8.72134,-10.90426 -17.76513,-19.41093 -26.14843,-25.789065 22.23416,4.375955 42.77934,13.348365 60.73437,25.789065 H 368.0332 C 337.8171,97.441769 298.89671,82.162109 256.42383,82.162109 c -95.98405,0 -173.919924,77.935871 -173.919924,173.919921 0,95.98405 77.935874,173.91992 173.919924,173.91992 95.98405,0 173.91992,-77.93587 173.91992,-173.91992 0,-3.47264 -0.13084,-2.50347 -0.33203,-5.92603 M 224.875,96.984375 c -8.43726,6.419175 -17.54317,14.982615 -26.31641,25.988285 -8.8502,11.10223 -17.29328,24.7163 -24.28515,40.91796 -13.00287,-4.76849 -24.8844,-10.62028 -35.26758,-17.375 -0.46267,-0.30099 -0.88514,-0.62155 -1.3418,-0.92578 22.78972,-24.4754 53.06605,-41.88535 87.21094,-48.605465 z m -94.91602,57.529295 c 0.88663,0.60286 1.76853,1.20989 2.67383,1.79883 11.10203,7.22237 23.64978,13.41852 37.28516,18.45117 -7.65887,21.09463 -12.78376,46.12823 -13.40235,75.39258 H 94.339844 c 1.298264,-36.17797 14.427846,-69.29263 35.619136,-95.64258 z M 94.335938,261.84375 h 62.177732 c 0.60933,29.65294 5.85245,54.952 13.66406,76.22852 -12.77269,4.87967 -24.55862,10.78834 -35.05273,17.61523 -1.47945,0.96246 -2.91647,1.95367 -4.3457,2.95312 C 109.0805,332.09175 95.616401,298.5442 94.335938,261.84375 Z m 73.863282,0 h 81.95703 v 60.96289 c -24.64656,0.64794 -47.97666,4.65508 -68.98633,11.39844 -7.37199,-20.01694 -12.36745,-43.97881 -12.9707,-72.36133 z m 94.49414,0 h 81.95703 c -0.60325,28.38252 -5.59871,52.34439 -12.9707,72.36133 -21.00967,-6.74336 -44.33977,-10.7505 -68.98633,-11.39844 z m 93.64258,0 h 62.17773 c -1.28046,36.70045 -14.74456,70.248 -36.44336,96.79687 -1.42923,-0.99945 -2.86625,-1.99066 -4.3457,-2.95312 -10.49411,-6.82689 -22.28005,-12.73556 -35.05273,-17.61523 7.81161,-21.27652 13.05473,-46.57558 13.66406,-76.22852 z m -106.17969,72.65234 v 82.08594 c -3.33156,-1.33169 -7.63838,-3.41245 -12.21484,-6.42578 -9.06618,-5.96956 -19.89244,-15.26665 -30.24219,-28.25 -7.97399,-10.00305 -15.65455,-22.23436 -22.10938,-36.82617 19.5923,-6.19251 41.44771,-9.94235 64.56641,-10.58399 z m 12.53711,0 c 23.1187,0.64164 44.97215,4.39148 64.56445,10.58399 -6.45483,14.59181 -14.13343,26.82312 -22.10742,36.82617 -10.34975,12.98335 -21.17601,22.28044 -30.24219,28.25 -4.57646,3.01333 -8.88328,5.09409 -12.21484,6.42578 z m -88.13281,14.43555 c 6.93582,15.90987 15.26858,29.30902 23.99804,40.25977 8.77375,11.00632 17.88069,19.56898 26.31836,25.98828 -33.7156,-6.6353 -63.64916,-23.70199 -86.33789,-47.69336 0.97917,-0.67093 1.95124,-1.34637 2.95899,-2.00195 9.79365,-6.37122 20.92169,-11.9373 33.0625,-16.55274 z m 163.72851,0 c 12.14081,4.61544 23.26885,10.18151 33.0625,16.55274 1.00775,0.65557 1.97786,1.33102 2.95703,2.00195 -22.68873,23.99137 -52.62229,41.05806 -86.33789,47.69336 8.43767,-6.4193 17.54657,-14.98196 26.32032,-25.98828 8.72946,-10.95075 17.06222,-24.3499 23.99804,-40.25977 z"
       sodipodi:nodetypes="cccccssccccscccccssssccscscccscccccccscccccccccccccccsccccssccccsscccsccsccsccsc" />
    <path
       id="path1021"
       style="color:#000000;fill:#ffffff;stroke-width:1.16873;-inkscape-stroke:none"
       d="m 262.76157,136.441 c -5.39523,0 -9.73793,4.34271 -9.73793,9.73793 v 80.42121 c 0,5.39522 4.3427,9.73792 9.73793,9.73792 h 153.96924 c 5.39522,0 9.73793,-4.3427 9.73793,-9.73792 v -80.42121 c 0,-5.39522 -4.34271,-9.73793 -9.73793,-9.73793 z m 114.55644,15.14104 c 5.85012,0 10.6143,1.3989 14.29644,4.19557 3.71654,2.79669 6.4354,6.69646 8.15604,11.70104 1.75502,4.97513 2.6342,10.73081 2.6342,17.26621 0,4.85738 -0.49948,9.31855 -1.49744,13.38109 -0.96355,4.06254 -2.4597,7.57953 -4.49003,10.55284 -1.99595,2.97331 -4.595,5.27001 -7.79537,6.88913 -3.16593,1.61913 -6.93345,2.42878 -11.30384,2.42878 -4.43921,0 -8.26099,-0.82586 -11.46135,-2.47443 -3.20036,-1.64857 -5.81524,-3.9592 -7.84558,-6.93251 -2.03035,-3.00274 -3.5265,-6.53366 -4.49004,-10.5962 -0.96356,-4.06254 -1.44494,-8.50977 -1.44494,-13.33772 0,-7.3008 0.94469,-13.39289 2.83738,-18.27973 1.89268,-4.91626 4.7155,-8.61185 8.46647,-11.0847 3.75096,-2.47286 8.39766,-3.70937 13.93806,-3.70937 z m -99.33323,0.97243 h 15.16843 l 15.36931,48.92702 h 0.29674 l 15.3693,-48.92702 h 15.21866 v 64.55883 h -10.50948 v -37.93134 c 0,-1.05979 0.0172,-2.23829 0.0503,-3.53359 0.0329,-1.32476 0.0822,-2.79558 0.14837,-4.41471 0.0991,-1.61913 0.19759,-3.40081 0.29675,-5.34376 h -0.34697 l -16.01302,51.2234 h -9.07139 l -15.96279,-51.26677 h -0.39719 c 0.16525,1.97239 0.28086,3.79586 0.34697,5.47387 0.0991,1.64856 0.16554,3.13562 0.19859,4.46037 0.066,1.29529 0.0982,2.4135 0.0982,3.35554 V 217.1133 H 277.9849 Z m 99.33323,7.59449 c -2.99388,0 -5.48899,0.92795 -7.48492,2.78259 -1.99593,1.85463 -3.49436,4.60605 -4.49232,8.25646 -0.99797,3.62096 -1.49516,8.14012 -1.49516,13.55685 0,5.38727 0.49719,9.90645 1.49516,13.55686 1.03238,3.6504 2.54661,6.40182 4.54254,8.25646 1.99592,1.85463 4.45713,2.78259 7.3822,2.78259 2.95947,0 5.42068,-0.89781 7.38219,-2.69357 1.96151,-1.8252 3.43957,-4.54876 4.43754,-8.16972 0.99796,-3.6504 1.49744,-8.22759 1.49744,-13.73262 0,-8.2134 -1.11873,-14.36579 -3.35555,-18.45777 -2.20238,-4.09199 -5.50431,-6.13813 -9.90912,-6.13813 z"
       sodipodi:nodetypes="ssssssssssccscccsscsscssccccccccsccccccccccscccsscscssccscs" />
  </g>
</svg>
