<?xml version="1.0" encoding="UTF-8" standalone="no"?>
<!-- Created with Inkscape (http://www.inkscape.org/) -->

<svg
   width="512"
   height="512"
   viewBox="0 0 512 512"
   version="1.1"
   id="svg5"
   inkscape:version="1.1.1 (26b7af14f2, 2022-01-19)"
   sodipodi:docname="icon.svg"
   xmlns:inkscape="http://www.inkscape.org/namespaces/inkscape"
   xmlns:sodipodi="http://sodipodi.sourceforge.net/DTD/sodipodi-0.dtd"
   xmlns:xlink="http://www.w3.org/1999/xlink"
   xmlns="http://www.w3.org/2000/svg"
   xmlns:svg="http://www.w3.org/2000/svg">
  <sodipodi:namedview
     id="namedview7"
     pagecolor="#ffffff"
     bordercolor="#666666"
     borderopacity="1.0"
     inkscape:pageshadow="2"
     inkscape:pageopacity="0.0"
     inkscape:pagecheckerboard="0"
     inkscape:document-units="px"
     showgrid="false"
     units="px"
     inkscape:zoom="0.75187991"
     inkscape:cx="285.94992"
     inkscape:cy="224.10494"
     inkscape:window-width="1848"
     inkscape:window-height="1016"
     inkscape:window-x="72"
     inkscape:window-y="27"
     inkscape:window-maximized="1"
     inkscape:current-layer="layer1" />
  <defs
     id="defs2">
    <linearGradient
       inkscape:collect="always"
       id="linearGradient17527">
      <stop
         style="stop-color:#0c8457;stop-opacity:1"
         offset="0"
         id="stop17523" />
      <stop
         style="stop-color:#10bb79;stop-opacity:1"
         offset="1"
         id="stop17525" />
    </linearGradient>
    <linearGradient
       inkscape:collect="always"
       xlink:href="#linearGradient17527"
       id="linearGradient17529"
       x1="393.82462"
       y1="475.44571"
       x2="831.90527"
       y2="32.350616"
       gradientUnits="userSpaceOnUse"
       gradientTransform="matrix(0,-1.1687346,1.1555082,0,-37.381404,460.27647)" />
  </defs>
  <g
     inkscape:label="Layer 1"
     inkscape:groupmode="layer"
     id="layer1">
    <rect
       style="fill:url(#linearGradient17529);fill-opacity:1;stroke:none;stroke-width:11.6211;stroke-miterlimit:4;stroke-dasharray:none"
       id="rect17411"
       width="512"
       height="512"
       x="0"
       y="-512"
       ry="0"
       transform="rotate(90)" />
    <path
       id="path145"
       style="color:#000000;fill:#ffffff;stroke-width:1.16873;-inkscape-stroke:none"
       d="m 256.42458,82.162288 c -95.98405,0 -173.9199,77.935842 -173.9199,173.919892 0,95.98405 77.93585,173.9199 173.9199,173.9199 95.98405,-2e-5 173.9199,-77.93585 173.9199,-173.9199 0,-12.86889 -1.44215,-25.39682 -4.0997,-37.47253 h -12.0092 c 2.40831,10.17792 3.88461,20.7191 4.27319,31.54669 h -62.17572 c -0.23515,-11.12446 -1.1255,-21.63254 -2.5566,-31.54669 H 341.959 c 1.49032,9.85329 2.44174,20.34256 2.68672,31.54669 h -82.80205 v -60.96362 c 11.30112,-0.29709 22.30503,-1.33557 32.9551,-2.98575 v -11.82886 c -10.60526,1.73133 -21.62303,2.81049 -32.9551,3.125 V 95.283146 c 3.43967,1.299211 8.02504,3.407046 13.06379,6.724774 6.06481,3.99333 12.92048,9.51392 19.89131,16.59283 v -2.82596 c 0,-3.85311 1.10821,-7.45517 2.88759,-10.65328 -3.28766,-3.01416 -6.53466,-5.714826 -9.6877,-8.114937 4.48798,0.884065 8.90302,1.966172 13.24868,3.211727 4.09487,-4.198968 9.76402,-6.857171 15.96509,-6.857171 h 0.59806 C 298.71392,86.143895 278.03417,82.162288 256.42458,82.162288 Z m -6.26824,13.419891 v 81.962011 c -23.15123,-0.41675 -45.07614,-3.94554 -64.79168,-9.93652 6.5011,-14.82233 14.26529,-27.22768 22.33378,-37.34925 10.34974,-12.98336 21.17708,-22.28092 30.24326,-28.2505 4.57646,-3.013331 8.88308,-5.094063 12.21464,-6.425741 z m -25.28072,1.401568 c -8.43726,6.419173 -17.54381,14.982673 -26.31705,25.988343 -8.8502,11.10223 -17.29359,24.7177 -24.28546,40.91937 -13.00287,-4.7685 -24.88428,-10.62105 -35.26746,-17.37577 -0.46267,-0.301 -0.88555,-0.62254 -1.34221,-0.92677 22.78972,-24.4754 53.06729,-41.88506 87.21218,-48.605173 z m 92.33681,9.053113 c -5.39523,0 -9.73793,4.34271 -9.73793,9.73793 V 196.196 c 0,5.39522 4.3427,9.73792 9.73793,9.73792 h 153.96924 c 5.39522,0 9.73793,-4.3427 9.73793,-9.73792 v -80.42121 c 0,-5.39522 -4.34271,-9.73793 -9.73793,-9.73793 z m 114.55644,15.14104 c 5.85012,0 10.6143,1.3989 14.29644,4.19557 3.71654,2.79669 6.4354,6.69646 8.15604,11.70104 1.75502,4.97513 2.6342,10.73081 2.6342,17.26621 0,4.85738 -0.49948,9.31855 -1.49744,13.38109 -0.96355,4.06254 -2.4597,7.57953 -4.49003,10.55284 -1.99595,2.97331 -4.595,5.27001 -7.79537,6.88913 -3.16593,1.61913 -6.93345,2.42878 -11.30384,2.42878 -4.43921,0 -8.26099,-0.82586 -11.46135,-2.47443 -3.20036,-1.64857 -5.81524,-3.9592 -7.84558,-6.93251 -2.03035,-3.00274 -3.5265,-6.53366 -4.49004,-10.5962 -0.96356,-4.06254 -1.44494,-8.50977 -1.44494,-13.33772 0,-7.3008 0.94469,-13.39289 2.83738,-18.27973 1.89268,-4.91626 4.7155,-8.61185 8.46647,-11.0847 3.75096,-2.47286 8.39766,-3.70937 13.93806,-3.70937 z m -99.33323,0.97243 h 15.16843 l 15.36931,48.92702 h 0.29674 l 15.3693,-48.92702 h 15.21866 v 64.55883 H 383.3486 v -37.93134 c 0,-1.05979 0.0172,-2.23829 0.0503,-3.53359 0.0329,-1.32476 0.0822,-2.79558 0.14837,-4.41471 0.0991,-1.61913 0.19759,-3.40081 0.29675,-5.34376 h -0.34697 l -16.01302,51.2234 h -9.07139 l -15.96279,-51.26677 h -0.39719 c 0.16525,1.97239 0.28086,3.79586 0.34697,5.47387 0.0991,1.64856 0.16554,3.13562 0.19859,4.46037 0.066,1.29529 0.0982,2.4135 0.0982,3.35554 v 37.97699 h -10.26066 z m 99.33323,7.59449 c -2.99388,0 -5.48899,0.92795 -7.48492,2.78259 -1.99593,1.85463 -3.49436,4.60605 -4.49232,8.25646 -0.99797,3.62096 -1.49516,8.14012 -1.49516,13.55685 0,5.38727 0.49719,9.90645 1.49516,13.55686 1.03238,3.6504 2.54661,6.40182 4.54254,8.25646 1.99592,1.85463 4.45713,2.78259 7.3822,2.78259 2.95947,0 5.42068,-0.89781 7.38219,-2.69357 1.96151,-1.8252 3.43957,-4.54876 4.43754,-8.16972 0.99796,-3.6504 1.49744,-8.22759 1.49744,-13.73262 0,-8.2134 -1.11873,-14.36579 -3.35555,-18.45777 -2.20238,-4.09199 -5.50431,-6.13813 -9.90912,-6.13813 z m -301.80949,24.76939 c 0.88663,0.60286 1.76773,1.20981 2.67303,1.79875 11.10203,7.22237 23.64995,13.41828 37.28533,18.45093 -7.65887,21.09463 -12.78304,46.1281 -13.40162,75.39245 H 94.340399 c 1.298264,-36.17797 14.427691,-69.29218 35.618981,-95.64213 z m 50.99058,24.00469 c 21.12473,6.52998 44.53302,10.29209 69.20638,10.71262 v 60.92482 h -81.95288 c 0.61308,-28.04012 5.50456,-51.77537 12.7465,-71.63744 z m -86.614131,83.32477 h 62.178001 c 0.60933,29.65294 5.85253,54.9514 13.66414,76.22792 -12.77269,4.87967 -24.55877,10.78857 -35.05288,17.61546 -1.47945,0.96246 -2.917,1.95434 -4.34623,2.9538 -21.6988,-26.54889 -35.162566,-60.09673 -36.443031,-96.79718 z m 73.863061,0 h 81.95745 v 60.96362 c -24.64656,0.64794 -47.97757,4.65407 -68.98724,11.39743 -7.37199,-20.01694 -12.36696,-43.97853 -12.97021,-72.36105 z m 93.64478,0 h 82.8066 c -0.59829,28.14928 -5.51067,51.96008 -12.78302,71.87712 -21.33531,-6.68421 -45.03515,-10.52641 -70.02358,-10.95231 z m 94.49166,0 h 62.178 c -1.26872,36.364 -14.49661,69.63314 -35.84725,96.06215 -1.08849,-0.74782 -2.18149,-1.49211 -3.29848,-2.21877 -10.88495,-7.08115 -23.16269,-13.17211 -36.48868,-18.1519 7.7007,-21.1628 12.85231,-46.29268 13.45641,-75.69148 z m -94.49166,72.61215 c 23.469,0.42247 45.68451,4.03729 65.60888,10.17848 -6.49452,14.78827 -14.24728,27.16755 -22.30181,37.27165 -10.34976,12.98335 -21.17708,22.28091 -30.24328,28.25048 -5.03875,3.31773 -9.62412,5.42556 -13.06379,6.72479 z m -11.68733,0.041 v 82.08529 c -3.33156,-1.33169 -7.63818,-3.41243 -12.21464,-6.42576 -9.06618,-5.96956 -19.89351,-15.26713 -30.24326,-28.25048 -7.97399,-10.00305 -15.65296,-22.23472 -22.10779,-36.82653 19.5923,-6.19251 41.44699,-9.94088 64.56569,-10.58252 z m 88.36265,13.90839 c 12.69135,4.71525 24.3042,10.46225 34.47537,17.07903 0.67029,0.43606 1.28716,0.89935 1.94484,1.34222 -22.75604,24.32796 -52.92893,41.63131 -86.94054,48.33125 8.42985,-6.41684 17.52863,-14.97229 26.29193,-25.96552 8.8259,-11.07172 17.24786,-24.64422 24.2284,-40.78698 z m -163.95826,0.5273 c 6.93582,15.90987 15.26838,29.30893 23.99784,40.25968 8.77375,11.00632 17.88166,19.56905 26.31933,25.98835 -33.7156,-6.6353 -63.64918,-23.70302 -86.33791,-47.69439 0.97917,-0.67093 1.95061,-1.34632 2.95836,-2.00191 9.79365,-6.37121 20.92157,-11.93629 33.06238,-16.55173 z" />
  </g>
</svg>
