<?xml version="1.0" encoding="UTF-8" standalone="no"?>
<svg
   xmlns:dc="http://purl.org/dc/elements/1.1/"
   xmlns:cc="http://creativecommons.org/ns#"
   xmlns:rdf="http://www.w3.org/1999/02/22-rdf-syntax-ns#"
   xmlns:svg="http://www.w3.org/2000/svg"
   xmlns="http://www.w3.org/2000/svg"
   xmlns:sodipodi="http://sodipodi.sourceforge.net/DTD/sodipodi-0.dtd"
   xmlns:inkscape="http://www.inkscape.org/namespaces/inkscape"
   width="24"
   height="24"
   version="1.2"
   viewBox="0 0 24 24"
   id="svg24"
   sodipodi:docname="qrcode.svg"
   inkscape:version="0.92.4 (5da689c313, 2019-01-14)">
  <metadata
     id="metadata30">
    <rdf:RDF>
      <cc:Work
         rdf:about="">
        <dc:format>image/svg+xml</dc:format>
        <dc:type
           rdf:resource="http://purl.org/dc/dcmitype/StillImage" />
        <dc:title>QR Code</dc:title>
      </cc:Work>
    </rdf:RDF>
  </metadata>
  <defs
     id="defs28" />
  <sodipodi:namedview
     pagecolor="#ffffff"
     bordercolor="#666666"
     borderopacity="1"
     objecttolerance="10"
     gridtolerance="10"
     guidetolerance="10"
     inkscape:pageopacity="0"
     inkscape:pageshadow="2"
     inkscape:window-width="1530"
     inkscape:window-height="791"
     id="namedview26"
     showgrid="false"
     showguides="true"
     inkscape:guide-bbox="true"
     inkscape:zoom="16.000001"
     inkscape:cx="23.491778"
     inkscape:cy="4.5733675"
     inkscape:window-x="1467"
     inkscape:window-y="99"
     inkscape:window-maximized="0"
     inkscape:current-layer="svg24"
     inkscape:snap-bbox="true"
     inkscape:bbox-paths="true"
     inkscape:bbox-nodes="true"
     inkscape:snap-bbox-edge-midpoints="true"
     inkscape:snap-bbox-midpoints="true">
    <sodipodi:guide
       position="2,2"
       orientation="1,0"
       id="guide851"
       inkscape:locked="false"
       inkscape:label=""
       inkscape:color="rgb(0,0,255)" />
    <sodipodi:guide
       position="2,2"
       orientation="0,1"
       id="guide853"
       inkscape:locked="false"
       inkscape:label=""
       inkscape:color="rgb(0,0,255)" />
    <sodipodi:guide
       position="22,22"
       orientation="1,0"
       id="guide855"
       inkscape:locked="false"
       inkscape:label=""
       inkscape:color="rgb(0,0,255)" />
    <sodipodi:guide
       position="22,22"
       orientation="0,1"
       id="guide857"
       inkscape:locked="false"
       inkscape:label=""
       inkscape:color="rgb(0,0,255)" />
  </sodipodi:namedview>
  <title
     id="title2">QR Code</title>
  <path
     id="path863"
     d="M 3,2 C 2.4477381,2.0000552 2.0000552,2.4477381 2,3 v 7 c 5.52e-5,0.552262 0.4477381,0.999945 1,1 h 7 c 0.552262,-5.5e-5 0.999945,-0.447738 1,-1 V 3 C 10.999945,2.4477381 10.552262,2.0000552 10,2 Z m 11,0 c -0.552262,5.52e-5 -0.999945,0.4477381 -1,1 v 7 c 5.5e-5,0.552262 0.447738,0.999945 1,1 h 7 c 0.552262,-5.5e-5 0.999945,-0.447738 1,-1 V 3 C 21.999945,2.4477381 21.552262,2.0000552 21,2 Z M 4,4 H 9 V 9 H 4 Z m 11,0 h 5 V 9 H 15 Z M 6.5,5 C 5.6715729,5 5,5.6715729 5,6.5 5,7.3284271 5.6715729,8 6.5,8 7.3284271,8 8,7.3284271 8,6.5 8,5.6715729 7.3284271,5 6.5,5 Z m 11,0 C 16.671573,5 16,5.6715729 16,6.5 16,7.3284271 16.671573,8 17.5,8 18.328427,8 19,7.3284271 19,6.5 19,5.6715729 18.328427,5 17.5,5 Z M 3,13 c -0.5522619,5.5e-5 -0.9999448,0.447738 -1,1 v 7 c 5.52e-5,0.552262 0.4477381,0.999945 1,1 h 7 c 0.552262,-5.5e-5 0.999945,-0.447738 1,-1 v -7 c -5.5e-5,-0.552262 -0.447738,-0.999945 -1,-1 z m 11,0 c -0.552262,5.5e-5 -0.999945,0.447738 -1,1 v 2 c -0.01913,1.352323 2.019125,1.352323 2,0 v -1 h 3 c 1.352323,0.01913 1.352323,-2.019125 0,-2 z M 4,15 h 5 v 5 H 4 Z m 2.5,1 C 5.6715729,16 5,16.671573 5,17.5 5,18.328427 5.6715729,19 6.5,19 7.3284271,19 8,18.328427 8,17.5 8,16.671573 7.3284271,16 6.5,16 Z m 6.5,4.986328 c -0.01913,1.352323 2.019125,1.352323 2,0 v -2 c 0.01913,-1.352323 -2.019125,-1.352323 -2,0 z M 20,19 v 1 h -3 c -1.352323,-0.01912 -1.352323,2.019125 0,2 h 4 c 0.552262,-5.5e-5 0.999945,-0.447738 1,-1 v -2 c 0.01913,-1.352323 -2.019125,-1.352323 -2,0 z m 0,-4.986328 v 2 c -0.01912,1.352323 2.019125,1.352323 2,0 v -2 c 0.01913,-1.352323 -2.019125,-1.352323 -2,0 z"
     inkscape:connector-curvature="0"
     sodipodi:nodetypes="ccccccccccccccccccccccccccccssssssssssccccccccccccccccccccccssssscccccccccccccccccc" />
</svg>
